<svg xmlns="http://www.w3.org/2000/svg" width="454" height="307"><g fill-rule="evenodd"><path d="M203.664 246.173c5.343.711 18.415-5.426 22.275-3.957 7.03 2.676 2.785 11.388 2.785 13.849 0 3.816-10.347 5.935-27.013 5.935-17.331 0-38.412-5.213-36.614-11.894 1.763-6.555 23.469-5.942 38.567-3.933z" fill="#9da7f3"/><path d="M207 252c5.757.719 19.841-5.485 24-4 7.574 2.705 3 11.512 3 14 0 3.858-11.148 6-29.1 6-18.673 0-41.386-5.27-39.449-12.025 1.897-6.626 25.283-6.006 41.549-3.975z" fill="#7280e9"/></g><path d="M104.667 92H88.5v120.5h19.667v-46q6.831 8.837 21.666 8.833 14.835-.004 25.5-11.333 11.5-12 11.5-31.5 0-19.332-11.333-31.333-10.668-11.333-25.667-11.334-15.667 0-23.333 13.167zm9 61a16.05 16.05 0 0 1-5.5-12.667v-14.5q.333-8.833 5.583-13.583 5.25-4.75 13.5-4.75a17.832 17.832 0 0 1 14 6.667q5.75 6.667 5.75 18.416 0 11.749-6.667 18.75a18.939 18.939 0 0 1-6.75 4.667 19.473 19.473 0 0 1-7.25 1.5 18.6 18.6 0 0 1-12.666-4.5h0zm79.833 32h19.666V90.833H193.5V185zm114-12h24l-37.833-51L329.5 92h-26.671l-32 28.5L271 63h-20l.162 110h19.667v-32l9-7.5zm84-15.833q-7.668 2.667-12.5 2.666-9.5 0-9.5-10v-44.666h22V92h-22V70.667h-19.672V92H338.5v13.167h11.333V150.5q0 12 7.667 18.833a25.049 25.049 0 0 0 8.417 4.5 36.88 36.88 0 0 0 11.083 1.5c4.221 0 9-1.445 16.333-4.333zm-317.546 27.87H56.745v94.646h56.146v-15.021H73.954v-79.625zm88.329 94.646h20.289l2.7.317h37.843l2.219-.317h20.29s10.02-3.619 8.169-7.985c-9.28-21.889-39.631-86.661-39.631-86.661h-21.585l-38.332 87.581c-1.933 4.414 8.038 7.065 8.038 7.065zm41.794-76.083l27.123 62.687h-53.54zm92.832 76.083h38.354q10.062 0 16.625-2.333 17.353-6.416 17.354-23.917 0-8.75-5.25-14.364a24.164 24.164 0 0 0-13.271-7.219 23.678 23.678 0 0 0 12.469-8.021 21.578 21.578 0 0 0 4.448-13.708 21.99 21.99 0 0 0-8.167-17.646q-8.606-7.437-24.354-7.438h-38.208v94.646zm17.208-15.021v-24.645h20.709q8.017 0 11.885 3.427a12.417 12.417 0 0 1 .146 17.864q-3.719 3.357-12.031 3.354h-20.709zm0-64.75h20.417q7.728 0 11.594 3.428a11.673 11.673 0 0 1 3.864 9.187 11.347 11.347 0 0 1-3.937 9.115Q342.118 225 334.388 225h-20.271v-25.088z" stroke="#fff" fill-rule="evenodd" fill="#fff" stroke-linejoin="round" stroke-width="3"/><g fill-rule="evenodd"><path d="M172,14.529L195.471,12,198,35.471,174.529,38Z" fill="#e95454"/><path d="M210.343,23.012l22.645,7.331-7.331,22.645-22.645-7.331Z" fill="#6ff193"/><path d="M185.015,64.2L206.8,54.015,216.985,75.8,195.2,85.985Z" fill="#7280e9"/></g></svg>