<svg xmlns="http://www.w3.org/2000/svg" width="454" height="227"><path d="M89.667,72H73.5V192.5H93.167v-46q6.832,8.837,21.666,8.833T140.333,144q11.5-12,11.5-31.5,0-19.332-11.333-31.333-10.668-11.332-25.667-11.333Q99.166,69.833,91.5,83Zm9,61a16.051,16.051,0,0,1-5.5-12.667v-14.5Q93.5,97,98.75,92.25t13.5-4.75a17.833,17.833,0,0,1,14,6.667q5.75,6.668,5.75,18.416t-6.667,18.75a18.939,18.939,0,0,1-6.75,4.667,19.473,19.473,0,0,1-7.25,1.5A18.6,18.6,0,0,1,98.667,133h0ZM178.5,153h19.666V70.833H178.5V153Zm114,0h24l-37.834-51L314.5,72H287.829l-32,28.5L256,43H236l0.162,110h19.667V121l9-7.5Zm84-15.833q-7.668,2.667-12.5,2.666-9.5,0-9.5-10V85.167h22V72h-22V50.667H334.828V72H323.5V85.167h11.333V130.5q0,12,7.667,18.833a25.049,25.049,0,0,0,8.417,4.5,36.88,36.88,0,0,0,11.083,1.5c4.221,0,9-1.445,16.333-4.333Z" fill="#fff" stroke="#fff" stroke-linejoin="round" stroke-width="3" fill-rule="evenodd"/><path d="M177 42h24v24h-24z" fill="#e95454"/><path d="M205 42h24v24h-24z" fill="#6ff193"/><path d="M205 70h24v24h-24z" fill="#7280e9"/></svg>