<svg width="32" height="32" viewBox="0 0 32 32" fill="none" xmlns="http://www.w3.org/2000/svg">
    <path d="M28.48 3.52001C26.88 1.92001 24.32 1.92001 22.72 3.52001L19.84 6.40001L18.72 5.28001C18.08 4.64001 17.12 4.64001 16.48 5.28001L15.2 6.40001C14.56 7.04001 14.56 8.00001 15.2 8.64001L23.2 16.64C23.84 17.28 24.8 17.28 25.44 16.64L26.56 15.52C27.2 14.88 27.2 13.92 26.56 13.28L25.6 12.16L28.48 9.28001C30.08 7.68001 30.08 5.12001 28.48 3.52001ZM7.04002 19.2C3.52002 22.72 5.60002 24.32 2.40002 28.48L3.52002 29.6C7.68002 26.4 9.28002 28.48 12.8 24.96L20.96 16.8L15.2 11.04L7.04002 19.2Z" fill="white" fill-opacity="0.8"/>
</svg>