<svg width="32" height="32" viewBox="0 0 32 32" fill="none" xmlns="http://www.w3.org/2000/svg">
    <path d="M16.172 4.414C16.9221 3.66412 17.9393 3.24286 19 3.24286C20.0606 3.24286 21.0779 3.66412 21.828 4.414L29.586 12.172C30.3359 12.9221 30.7571 13.9393 30.7571 15C30.7571 16.0607 30.3359 17.0779 29.586 17.828L18.586 28.828C17.836 29.5782 16.8188 29.9998 15.758 30H10.24C9.17921 29.9998 8.16196 29.5782 7.41199 28.828L2.41199 23.828C1.66211 23.0779 1.24084 22.0607 1.24084 21C1.24084 19.9393 1.66211 18.9221 2.41199 18.172L16.17 4.414H16.172ZM17.492 27.094L6.90599 16.508L3.82799 19.586C3.45305 19.9611 3.24242 20.4697 3.24242 21C3.24242 21.5303 3.45305 22.0389 3.82799 22.414L8.82799 27.414C9.20298 27.7891 9.7116 27.9999 10.242 28H15.76C16.2904 27.9999 16.799 27.7891 17.174 27.414L17.494 27.094H17.492Z" fill="white" fill-opacity="0.8"/>
</svg>