<svg width="32" height="32" viewBox="0 0 32 32" fill="none" xmlns="http://www.w3.org/2000/svg">
    <path d="M2.97168 3.97168V28.0283C2.97168 28.2935 3.07704 28.5479 3.26457 28.7354C3.45211 28.9229 3.70646 29.0283 3.97168 29.0283H28.0283C28.2935 29.0283 28.5479 28.9229 28.7354 28.7354C28.9229 28.5479 29.0283 28.2935 29.0283 28.0283V3.97168C29.0283 3.70646 28.9229 3.45211 28.7354 3.26457C28.5479 3.07704 28.2935 2.97168 28.0283 2.97168H3.97168C3.70646 2.97168 3.45211 3.07704 3.26457 3.26457C3.07704 3.45211 2.97168 3.70646 2.97168 3.97168ZM21.0092 4.97168H27.0279V10.9904H21.0092V4.97168ZM21.0092 12.9904H27.0279V19.0092H21.0092V12.9904ZM21.0092 21.0092H27.0279V27.0279H21.0092V21.0092ZM12.9904 4.97168H19.0092V10.9904H12.9904V4.97168ZM12.9904 12.9904H19.0092V19.0092H12.9904V12.9904ZM12.9904 21.0092H19.0092V27.0279H12.9904V21.0092ZM4.97168 4.97168H10.9904V10.9904H4.97168V4.97168ZM4.97168 12.9904H10.9904V19.0092H4.97168V12.9904ZM4.97168 21.0092H10.9904V27.0279H4.97168V21.0092Z" fill="white" fill-opacity="0.8"/>
</svg>