<svg width="32" height="32" viewBox="0 0 32 32" fill="none" xmlns="http://www.w3.org/2000/svg">
    <path d="M11.6093 26.276L24 13.8853L18.1147 8L5.724 20.3907C5.55342 20.5615 5.43225 20.7752 5.37333 21.0093L4 28L10.9893 26.6267C11.224 26.568 11.4387 26.4467 11.6093 26.276ZM28 9.88534C28.4999 9.38526 28.7808 8.70711 28.7808 8C28.7808 7.2929 28.4999 6.61474 28 6.11467L25.8853 4C25.3853 3.50008 24.7071 3.21924 24 3.21924C23.2929 3.21924 22.6147 3.50008 22.1147 4L20 6.11467L25.8853 12L28 9.88534Z" fill="white" fill-opacity="0.8"/>
</svg>