<svg width="32" height="32" viewBox="0 0 32 32" fill="none" xmlns="http://www.w3.org/2000/svg">
    <path d="M2.50668 0.613281L0.613342 2.50661L7.45334 9.33328H2.66668V11.9999H12V2.66661H9.33334V7.45328L2.50668 0.613281ZM14.6667 9.33328V11.9999H28V19.9999H30.6667V11.9999C30.6667 11.2927 30.3857 10.6144 29.8856 10.1143C29.3855 9.61423 28.7073 9.33328 28 9.33328H14.6667ZM9.33334 14.6666V28C9.33334 28.7072 9.61429 29.3855 10.1144 29.8856C10.6145 30.3857 11.2928 30.6666 12 30.6666H20V28H12V14.6666H9.33334ZM21.1733 19.2799L19.28 21.1733L26.1333 28H22.6667V30.6666H30.6667V22.6666H28V26.1199" fill="white" fill-opacity="0.8"/>
</svg>