<svg width="32" height="32" viewBox="0 0 32 32" fill="none" xmlns="http://www.w3.org/2000/svg">
    <path d="M27.144 4.76322C27.9808 5.17602 28.6112 5.94403 29.0304 7.11203C29.1341 7.41073 29.1158 7.73831 28.9793 8.02355C28.8428 8.30879 28.5993 8.52864 28.3016 8.63531C28.004 8.74198 27.6762 8.72685 27.3896 8.59321C27.1031 8.45957 26.8808 8.21822 26.7712 7.92163C26.5024 7.17283 26.2192 6.98242 26.0832 6.91682C25.8848 6.81762 25.648 6.80002 25.1504 6.80002C24.76 6.80002 24.528 6.92002 24.36 7.07203C24.168 7.24323 23.9984 7.51202 23.8688 7.86242C23.7049 8.31553 23.6147 8.79197 23.6016 9.27362V9.28963C23.6016 9.93923 23.6128 10.7136 23.8624 11.352C23.9776 11.6496 24.1312 11.8736 24.3264 12.0352C24.5136 12.1904 24.8016 12.3392 25.2832 12.392C25.4304 12.408 25.7472 12.408 26.056 12.2928C26.2251 12.2312 26.3793 12.1347 26.5086 12.0095C26.6379 11.8844 26.7393 11.7334 26.8064 11.5664C26.9428 11.2855 27.1834 11.0688 27.477 10.9624C27.7706 10.856 28.0941 10.8683 28.3789 10.9966C28.6636 11.1249 28.8871 11.3591 29.0019 11.6496C29.1166 11.94 29.1137 12.2637 28.9936 12.552C27.9776 14.8096 25.7392 14.8576 25.0176 14.7776C24.1232 14.6784 23.3824 14.368 22.7952 13.8832C22.2703 13.4392 21.8682 12.8679 21.6272 12.224C21.2 11.1312 21.2 9.94403 21.2 9.33283V9.21442L21.208 9.06402C21.2415 8.36704 21.3807 7.67919 21.6208 7.02402C21.8336 6.45282 22.1808 5.80002 22.7616 5.28002C23.3664 4.74082 24.1664 4.40002 25.1504 4.40002H25.2064C25.6432 4.40002 26.4032 4.39842 27.144 4.76322Z" fill="white" fill-opacity="0.8"/>
    <path d="M7.51361 4.40001C7.759 4.40333 7.99747 4.4818 8.19687 4.62484C8.39628 4.76789 8.54703 4.96863 8.62881 5.20001L11.4672 13.2C11.5673 13.4985 11.5461 13.8244 11.4081 14.1074C11.2701 14.3904 11.0264 14.6079 10.7295 14.7128C10.4327 14.8178 10.1065 14.8019 9.82124 14.6685C9.53602 14.5352 9.31463 14.2951 9.20481 14L9.06241 13.6H5.68641L5.52001 14.032C5.46328 14.1791 5.37814 14.3136 5.26944 14.4277C5.16074 14.5419 5.03062 14.6336 4.8865 14.6974C4.74238 14.7613 4.5871 14.7962 4.4295 14.8001C4.27191 14.804 4.11509 14.7767 3.96801 14.72C3.82093 14.6633 3.68646 14.5781 3.57229 14.4694C3.45812 14.3607 3.36647 14.2306 3.30258 14.0865C3.2387 13.9424 3.20382 13.7871 3.19995 13.6295C3.19607 13.4719 3.22328 13.3151 3.28001 13.168L6.37761 5.16801C6.46584 4.93929 6.62201 4.74308 6.82511 4.60577C7.0282 4.46847 7.26848 4.39666 7.51361 4.40001ZM7.44961 9.05121L6.61601 11.2H8.20961L7.44641 9.05121H7.44961Z" fill="white" fill-opacity="0.8"/>
    <path d="M8.47999 17.2032C8.78192 17.2258 9.06414 17.3617 9.27007 17.5837C9.47601 17.8056 9.59043 18.0972 9.59039 18.4V26.4C9.59039 26.7182 9.46396 27.0235 9.23892 27.2485C9.01387 27.4736 8.70865 27.6 8.39039 27.6C8.07213 27.6 7.7669 27.4736 7.54186 27.2485C7.31682 27.0235 7.19039 26.7182 7.19039 26.4V22.08C7.08639 22.16 6.98239 22.2352 6.87359 22.3056C6.74252 22.3951 6.59501 22.4576 6.43959 22.4897C6.28417 22.5218 6.12393 22.5227 5.96814 22.4925C5.81236 22.4622 5.66413 22.4013 5.53203 22.3134C5.39992 22.2255 5.28658 22.1122 5.19855 21.9801C5.11052 21.8481 5.04956 21.6999 5.01919 21.5441C4.98882 21.3884 4.98965 21.2281 5.02162 21.0727C5.0536 20.9173 5.11609 20.7697 5.20548 20.6386C5.29487 20.5074 5.40938 20.3954 5.54239 20.3088C6.43839 19.712 7.07999 18.768 7.21759 18.1424C7.27868 17.8591 7.44046 17.6076 7.67292 17.4346C7.90537 17.2616 8.19271 17.1788 8.48159 17.2016L8.47999 17.2032Z" fill="white" fill-opacity="0.8"/>
    <path d="M15.736 19.6001C15.2416 19.6001 14.8 20.0641 14.8 20.5825C14.8 20.9007 14.6736 21.206 14.4486 21.431C14.2235 21.656 13.9183 21.7825 13.6 21.7825C13.2818 21.7825 12.9766 21.656 12.7515 21.431C12.5265 21.206 12.4 20.9007 12.4 20.5825C12.4 18.9185 13.744 17.2001 15.736 17.2001C16.872 17.2001 17.9856 17.7313 18.616 18.7009C19.2832 19.7249 19.2832 21.0369 18.552 22.2801C18.176 22.9201 17.6688 23.3905 17.1984 23.7617C16.9616 23.9489 16.7216 24.1201 16.5008 24.2769L16.4048 24.3441C16.216 24.4769 16.0448 24.5985 15.88 24.7217C15.656 24.8913 15.4688 25.0465 15.3184 25.2001H17.9104C18.2287 25.2001 18.5339 25.3265 18.759 25.5515C18.984 25.7766 19.1104 26.0818 19.1104 26.4001C19.1104 26.7183 18.984 27.0236 18.759 27.2486C18.5339 27.4736 18.2287 27.6001 17.9104 27.6001H13.6816C13.6539 27.6011 13.6262 27.6011 13.5984 27.6001C13.2802 27.6001 12.975 27.4736 12.7499 27.2486C12.5249 27.0236 12.3984 26.7183 12.3984 26.4001C12.3984 24.5473 13.4992 23.5089 14.4352 22.8049C14.632 22.6561 14.8368 22.5121 15.024 22.3809L15.1136 22.3169C15.3328 22.1617 15.528 22.0225 15.7088 21.8785C16.0736 21.5905 16.3216 21.3345 16.48 21.0657C16.8176 20.4897 16.704 20.1665 16.6032 20.0097C16.464 19.7969 16.1536 19.6001 15.7344 19.6001H15.736Z" fill="white" fill-opacity="0.8"/>
    <path d="M23.5552 20.1841C23.5958 20.0469 23.6733 19.9234 23.7792 19.8273C23.8848 19.7361 24.0992 19.6001 24.5552 19.6001C25.3424 19.6001 25.5088 20.0961 25.5088 20.2177C25.5088 20.4897 25.448 20.7201 25.3344 20.8625C25.2624 20.9521 25.024 21.2001 24.1952 21.2001C23.877 21.2001 23.5717 21.3265 23.3467 21.5515C23.1217 21.7766 22.9952 22.0818 22.9952 22.4001C22.9952 22.7183 23.1217 23.0236 23.3467 23.2486C23.5717 23.4736 23.877 23.6001 24.1952 23.6001C24.5184 23.6001 24.936 23.6449 25.2288 23.7825C25.3128 23.8158 25.3871 23.8697 25.4448 23.9393C25.464 23.9665 25.5088 24.0353 25.5088 24.2177C25.5088 24.7537 25.3456 24.9345 25.2608 25.0065C25.1408 25.1073 24.912 25.2001 24.5552 25.2001C24.1376 25.2001 23.944 25.1265 23.8512 25.0689C23.7792 25.0241 23.6544 24.9185 23.5408 24.5713C23.4386 24.2726 23.2228 24.0263 22.9402 23.8856C22.6576 23.745 22.331 23.7213 22.0311 23.8198C21.7312 23.9183 21.4822 24.131 21.338 24.4118C21.1938 24.6926 21.1661 25.019 21.2608 25.3201C21.5056 26.0625 21.9184 26.6865 22.5664 27.0961C23.1904 27.4913 23.8944 27.6001 24.5552 27.6001C25.2752 27.6001 26.1232 27.4193 26.8096 26.8401C27.5328 26.2289 27.9088 25.3201 27.9088 24.2177C27.9198 23.5282 27.6785 22.8585 27.2304 22.3345C27.8096 21.5921 27.9088 20.7409 27.9088 20.2177C27.9088 18.7409 26.6384 17.2001 24.5552 17.2001C23.5488 17.2001 22.7616 17.5249 22.192 18.0273C21.7419 18.427 21.4145 18.9463 21.248 19.5249C21.2011 19.6774 21.1852 19.8378 21.201 19.9966C21.2168 20.1554 21.2642 20.3095 21.3403 20.4497C21.4164 20.59 21.5198 20.7137 21.6443 20.8136C21.7688 20.9134 21.9119 20.9874 22.0654 21.0313C22.2189 21.0751 22.3795 21.0879 22.538 21.0689C22.6964 21.0499 22.8495 20.9995 22.9883 20.9206C23.127 20.8417 23.2486 20.7359 23.3459 20.6095C23.4433 20.483 23.5145 20.3384 23.5552 20.1841Z" fill="white" fill-opacity="0.8"/>
    <path d="M12.8 5.60002V13.6C12.8 13.7741 12.8379 13.9461 12.911 14.1041C12.9842 14.2621 13.0908 14.4023 13.2235 14.515C13.3563 14.6276 13.5119 14.71 13.6797 14.7565C13.8475 14.8029 14.0234 14.8123 14.1952 14.784V14.8H16.8C17.1808 14.8 17.9728 14.7408 18.712 14.312C19.544 13.8272 20.1888 12.936 20.1888 11.5856C20.1888 10.9136 20.0416 10.3152 19.736 9.81442C19.6107 9.60843 19.4584 9.42009 19.2832 9.25442C19.5264 8.80802 19.6704 8.26242 19.6704 7.61442C19.6704 6.96002 19.5408 6.37922 19.2704 5.88642C19.0267 5.43696 18.6605 5.06581 18.2144 4.81602C17.4736 4.40002 16.6816 4.40002 16.4128 4.40002H14C13.6817 4.40002 13.3765 4.52645 13.1515 4.7515C12.9264 4.97654 12.8 5.28176 12.8 5.60002ZM16.8 12.4H15.2V10.8H16.6976C17.0032 10.8 17.3056 10.816 17.5248 10.9232C17.608 10.9648 17.6528 11.008 17.6864 11.0624C17.7216 11.1184 17.7888 11.2656 17.7888 11.5856C17.7998 11.7498 17.7666 11.9138 17.6928 12.0608C17.6473 12.1352 17.5826 12.196 17.5056 12.2368C17.2873 12.3466 17.0459 12.4025 16.8016 12.4H16.8ZM15.3952 8.40002H15.2V6.80002H16.4C16.6512 6.80002 16.8816 6.82082 17.0368 6.90882C17.0914 6.93759 17.136 6.98221 17.1648 7.03682C17.2032 7.10722 17.2704 7.27522 17.2704 7.61282C17.281 7.78363 17.248 7.95432 17.1744 8.10882C17.1386 8.17285 17.086 8.22594 17.0224 8.26242C16.8461 8.35417 16.65 8.40141 16.4512 8.40002H15.3952Z" fill="white" fill-opacity="0.8"/>
</svg>